<?xml version="1.0" standalone="no"?>
<svg xmlns:xlink="http://www.w3.org/1999/xlink" id="wave" style="transform:rotate(180deg); transition: 0.3s" viewBox="0 0 1440 490" version="1.1" xmlns="http://www.w3.org/2000/svg"><defs><linearGradient id="sw-gradient-0" x1="0" x2="0" y1="1" y2="0"><stop stop-color="rgba(255, 249, 233, 1)" offset="0%"/><stop stop-color="rgba(255, 229.521, 161.576, 1)" offset="100%"/></linearGradient></defs><path style="transform:translate(0, 0px); opacity:1" fill="url(#sw-gradient-0)" d="M0,98L40,130.7C80,163,160,229,240,253.2C320,278,400,261,480,220.5C560,180,640,114,720,114.3C800,114,880,180,960,187.8C1040,196,1120,147,1200,114.3C1280,82,1360,65,1440,73.5C1520,82,1600,114,1680,171.5C1760,229,1840,310,1920,359.3C2000,408,2080,425,2160,424.7C2240,425,2320,408,2400,400.2C2480,392,2560,392,2640,383.8C2720,376,2800,359,2880,318.5C2960,278,3040,212,3120,228.7C3200,245,3280,343,3360,326.7C3440,310,3520,180,3600,171.5C3680,163,3760,278,3840,269.5C3920,261,4000,131,4080,106.2C4160,82,4240,163,4320,171.5C4400,180,4480,114,4560,138.8C4640,163,4720,278,4800,310.3C4880,343,4960,294,5040,245C5120,196,5200,147,5280,147C5360,147,5440,196,5520,220.5C5600,245,5680,245,5720,245L5760,245L5760,490L5720,490C5680,490,5600,490,5520,490C5440,490,5360,490,5280,490C5200,490,5120,490,5040,490C4960,490,4880,490,4800,490C4720,490,4640,490,4560,490C4480,490,4400,490,4320,490C4240,490,4160,490,4080,490C4000,490,3920,490,3840,490C3760,490,3680,490,3600,490C3520,490,3440,490,3360,490C3280,490,3200,490,3120,490C3040,490,2960,490,2880,490C2800,490,2720,490,2640,490C2560,490,2480,490,2400,490C2320,490,2240,490,2160,490C2080,490,2000,490,1920,490C1840,490,1760,490,1680,490C1600,490,1520,490,1440,490C1360,490,1280,490,1200,490C1120,490,1040,490,960,490C880,490,800,490,720,490C640,490,560,490,480,490C400,490,320,490,240,490C160,490,80,490,40,490L0,490Z"/></svg>